Hanif_Deep_7_5_grf.mot
version=1
nRows=42
nColumns=19
inDegrees=yes
endheader
time	right_ground_force_vx	right_ground_force_vy	right_ground_force_vz	right_ground_force_px	right_ground_force_py	right_ground_force_pz	right_ground_torque_x	right_ground_torque_y	right_ground_torque_z	left_ground_force_vx	left_ground_force_vy	left_ground_force_vz	left_ground_force_px	left_ground_force_py	left_ground_force_pz	left_ground_torque_x	left_ground_torque_y	left_ground_torque_z
4.600000	-15.058900	308.016000	-8.548240	0.190467	0.000000	-1.453370	-16.394100	2.857930	-3.039750	10.702100	322.644000	6.789520	0.223134	0.000000	-1.007130	33.281500	-10.776400	7.264150
4.605000	-15.382600	307.467000	-8.587520	0.189831	0.000000	-1.452630	-16.600700	2.882940	-3.232520	10.177900	322.107000	7.708770	0.223674	0.000000	-1.007130	33.241800	-10.683900	7.399540
4.610000	-14.731500	308.007000	-9.059120	0.190413	0.000000	-1.452500	-16.658100	2.897360	-3.063780	9.672550	319.939000	8.508130	0.224590	0.000000	-1.007210	33.057000	-10.651900	7.616300
4.615000	-14.860100	306.493000	-9.204880	0.190482	0.000000	-1.452520	-16.575100	2.931600	-3.031850	9.250100	320.686000	9.123280	0.225335	0.000000	-1.007420	33.213700	-10.643900	7.855690
4.620000	-14.626000	305.751000	-9.216840	0.190677	0.000000	-1.452560	-16.518600	2.898880	-2.964000	9.306650	319.241000	9.711870	0.225692	0.000000	-1.007570	33.108600	-10.644600	7.915340
4.625000	-14.554500	304.273000	-9.027640	0.190798	0.000000	-1.452480	-16.460000	2.784300	-2.908230	9.270870	318.342000	10.122300	0.225922	0.000000	-1.007500	32.993300	-10.622000	7.953370
4.630000	-14.005500	303.851000	-8.779010	0.190922	0.000000	-1.452090	-16.544900	2.756100	-2.862160	8.896620	318.164000	10.515700	0.226853	0.000000	-1.007390	32.950100	-10.573200	8.234130
4.635000	-13.685600	301.640000	-9.106420	0.191109	0.000000	-1.452200	-16.392800	2.786740	-2.790680	8.939800	316.342000	10.918600	0.227186	0.000000	-1.008500	33.108600	-10.668500	8.274530
4.640000	-12.962200	300.712000	-8.891300	0.191093	0.000000	-1.451740	-16.469300	2.755840	-2.783070	8.429120	316.282000	10.996300	0.227806	0.000000	-1.008790	33.211000	-10.544900	8.469400
4.645000	-13.102700	300.337000	-9.270380	0.191356	0.000000	-1.451850	-16.424200	2.876870	-2.709380	8.392760	314.328000	11.764800	0.228241	0.000000	-1.008620	32.950500	-10.531400	8.528340
4.650000	-12.341000	299.435000	-9.643330	0.191761	0.000000	-1.451770	-16.383100	2.769320	-2.580430	7.651280	313.438000	12.384200	0.228780	0.000000	-1.008670	32.892100	-10.502900	8.651680
4.655000	-12.184500	299.196000	-9.707380	0.192385	0.000000	-1.451480	-16.456600	2.809280	-2.393590	7.131400	312.516000	13.225300	0.229267	0.000000	-1.009230	32.988000	-10.403900	8.754700
4.660000	-12.365500	297.882000	-9.742930	0.191925	0.000000	-1.451070	-16.512200	2.815380	-2.522140	6.213260	310.916000	14.165700	0.229762	0.000000	-1.009320	32.872800	-10.343500	8.831420
4.665000	-11.936400	296.701000	-9.888450	0.192105	0.000000	-1.451020	-16.458700	2.910810	-2.464040	5.638350	308.627000	14.548000	0.230524	0.000000	-1.009690	32.757800	-10.316800	8.983430
4.670000	-11.987800	296.573000	-10.550300	0.192648	0.000000	-1.451210	-16.392800	2.814310	-2.306550	5.300870	308.182000	15.351800	0.230287	0.000000	-1.009130	32.548900	-10.219100	8.876050
4.675000	-11.930800	296.047000	-10.400300	0.193181	0.000000	-1.451390	-16.311700	2.862520	-2.144650	5.328530	307.500000	15.700900	0.231104	0.000000	-1.009900	32.710600	-10.291700	9.092940
4.680000	-11.563900	292.677000	-10.462200	0.193542	0.000000	-1.450640	-16.340300	2.790810	-2.015290	5.915200	307.608000	15.783600	0.231548	0.000000	-1.009750	32.660000	-10.298400	9.233990
4.685000	-11.695400	293.572000	-11.165900	0.193436	0.000000	-1.450790	-16.346300	2.770190	-2.059850	5.746560	308.032000	15.796700	0.232308	0.000000	-1.010240	32.860500	-10.319400	9.480570
4.690000	-12.233400	292.472000	-11.454000	0.194174	0.000000	-1.449870	-16.563800	2.737110	-1.840740	5.855270	307.611000	16.733800	0.232582	0.000000	-1.010260	32.821900	-10.297000	9.526160
4.695000	-12.737200	292.816000	-12.347800	0.194210	0.000000	-1.449440	-16.716800	2.750170	-1.844630	5.455390	307.244000	16.895700	0.232457	0.000000	-1.010740	32.939100	-10.361000	9.464860
4.700000	-13.358600	291.386000	-12.623600	0.194651	0.000000	-1.450570	-16.312500	2.712420	-1.711150	5.191550	307.816000	17.093300	0.233272	0.000000	-1.011170	33.140700	-10.306400	9.732150
4.705000	-13.634700	289.283000	-13.449900	0.194996	0.000000	-1.449840	-16.404800	2.544420	-1.604720	5.159340	307.844000	17.498200	0.233544	0.000000	-1.010690	33.000000	-10.287500	9.806350
4.710000	-13.899000	289.131000	-13.767500	0.195517	0.000000	-1.449650	-16.458900	2.590480	-1.459780	4.878120	308.042000	17.594900	0.233272	0.000000	-1.010430	32.947100	-10.243400	9.727540
4.715000	-14.287600	287.698000	-14.451200	0.195597	0.000000	-1.449360	-16.463400	2.531690	-1.437850	4.378200	307.464000	17.839400	0.234149	0.000000	-1.011510	33.231800	-10.212900	9.969910
4.720000	-14.481700	286.508000	-14.588300	0.196211	0.000000	-1.449010	-16.502700	2.556400	-1.260640	3.650280	306.353000	18.281200	0.233716	0.000000	-1.011600	33.162000	-10.156500	9.783490
4.725000	-14.867700	285.793000	-15.672800	0.196339	0.000000	-1.448850	-16.511700	2.529570	-1.234740	3.838580	306.207000	18.143600	0.233953	0.000000	-1.011120	32.991500	-10.135700	9.857230
4.730000	-14.589100	284.937000	-15.841500	0.196551	0.000000	-1.448450	-16.569900	2.440260	-1.168130	4.302860	305.503000	18.123300	0.234742	0.000000	-1.011730	33.088100	-10.201000	10.073600
4.735000	-15.191800	283.782000	-16.404400	0.197108	0.000000	-1.448480	-16.495500	2.303290	-1.007150	4.792790	306.782000	18.212600	0.234578	0.000000	-1.011710	33.209100	-10.208200	10.070100
4.740000	-15.165000	285.425000	-17.009800	0.197752	0.000000	-1.448700	-16.523400	2.272850	-0.831056	4.518760	305.250000	18.765800	0.234987	0.000000	-1.012470	33.282700	-10.163500	10.125700
4.745000	-15.867500	283.344000	-18.100600	0.198097	0.000000	-1.447970	-16.623900	2.303230	-0.747223	4.642520	306.638000	18.665400	0.235060	0.000000	-1.012130	33.329200	-10.112300	10.205700
4.750000	-16.226500	282.690000	-18.738100	0.199339	0.000000	-1.447870	-16.618000	2.248710	-0.399339	4.326550	307.259000	18.804800	0.235129	0.000000	-1.011920	33.340800	-10.130200	10.243100
4.755000	-17.006000	280.630000	-19.169800	0.199194	0.000000	-1.447100	-16.725300	2.204650	-0.446129	3.900540	306.866000	19.334800	0.235455	0.000000	-1.013220	33.707000	-10.112300	10.312900
4.760000	-17.460100	280.758000	-19.700100	0.200030	0.000000	-1.446900	-16.783900	2.058580	-0.208372	3.911740	306.907000	19.003600	0.235584	0.000000	-1.013530	33.809000	-10.085600	10.365200
4.765000	-17.790700	281.984000	-20.581200	0.200944	0.000000	-1.446500	-16.970700	2.004010	0.044145	4.052390	307.876000	19.394500	0.235804	0.000000	-1.012860	33.703600	-10.124100	10.457200
4.770000	-18.635800	282.423000	-21.050200	0.201109	0.000000	-1.446170	-17.096200	1.938790	0.087323	3.587160	307.271000	19.816400	0.235982	0.000000	-1.013680	33.901200	-10.193600	10.470300
4.775000	-18.948700	283.703000	-21.487200	0.201235	0.000000	-1.446310	-17.137300	1.952470	0.118828	4.333050	308.966000	19.864500	0.236036	0.000000	-1.013170	33.913700	-10.083300	10.562200
4.780000	-19.483600	283.713000	-21.747600	0.201774	0.000000	-1.446170	-17.182300	1.916850	0.269873	4.085550	308.386000	20.326800	0.235699	0.000000	-1.013350	33.913000	-10.144400	10.417900
4.785000	-20.031800	284.110000	-22.493400	0.202429	0.000000	-1.445750	-17.326300	1.825050	0.454459	4.194640	308.605000	20.282300	0.236407	0.000000	-1.013190	33.884900	-10.095400	10.650700
4.790000	-20.248200	283.302000	-23.099600	0.202720	0.000000	-1.445460	-17.363200	1.811480	0.528182	4.461020	307.642000	19.943300	0.236200	0.000000	-1.013270	33.795400	-10.052700	10.563600
4.795000	-20.327100	283.722000	-23.146000	0.203316	0.000000	-1.445270	-17.443300	1.819450	0.697903	4.701570	308.420000	20.336000	0.236427	0.000000	-1.013720	34.014600	-10.054500	10.655200
4.800000	-20.382400	283.881000	-23.650700	0.202612	0.000000	-1.445070	-17.509600	1.777260	0.494983	5.113830	309.693000	20.203900	0.236020	0.000000	-1.012910	33.890400	-10.205900	10.573500
4.805000	-20.348500	283.049000	-23.530200	0.203911	0.000000	-1.444490	-17.617900	1.733320	0.866652	5.674000	308.646000	19.951300	0.235929	0.000000	-1.014450	34.236400	-10.156100	10.520100
